<?xml version="1.0" encoding="UTF-8" standalone="no"?>
<!DOCTYPE svg PUBLIC "-//W3C//DTD SVG 1.1//EN"
 "http://www.w3.org/Graphics/SVG/1.1/DTD/svg11.dtd">
<!-- Generated by graphviz version 2.46.0 (0)
 -->
<!-- Title: updateDecisions Pages: 1 -->
<svg width="515pt" height="674pt"
 viewBox="0.00 0.00 514.94 674.48" xmlns="http://www.w3.org/2000/svg" xmlns:xlink="http://www.w3.org/1999/xlink">
<g id="graph0" class="graph" transform="scale(1 1) rotate(0) translate(4 670.48)">
<title>updateDecisions</title>
<polygon fill="white" stroke="transparent" points="-4,4 -4,-670.48 510.94,-670.48 510.94,4 -4,4"/>
<!-- new -->
<g id="node1" class="node">
<title>new</title>
<ellipse fill="none" stroke="black" cx="421.39" cy="-648.48" rx="80.69" ry="18"/>
<text text-anchor="middle" x="421.39" y="-644.78" font-family="Times,serif" font-size="14.00">New edge available</text>
</g>
<!-- test -->
<g id="node2" class="node">
<title>test</title>
<ellipse fill="none" stroke="black" cx="352.39" cy="-575.48" rx="110.48" ry="18"/>
<text text-anchor="middle" x="352.39" y="-571.78" font-family="Times,serif" font-size="14.00">Are there failing local tests?</text>
</g>
<!-- new&#45;&gt;test -->
<g id="edge1" class="edge">
<title>new&#45;&gt;test</title>
<path fill="none" stroke="black" d="M405.04,-630.65C396.4,-621.77 385.64,-610.69 376.11,-600.88"/>
<polygon fill="black" stroke="black" points="378.59,-598.41 369.11,-593.68 373.57,-603.29 378.59,-598.41"/>
</g>
<!-- pulled -->
<g id="node3" class="node">
<title>pulled</title>
<ellipse fill="none" stroke="black" cx="200.39" cy="-488.48" rx="112.38" ry="18"/>
<text text-anchor="middle" x="200.39" y="-484.78" font-family="Times,serif" font-size="14.00">Does Red Hat pull the edge?</text>
</g>
<!-- test&#45;&gt;pulled -->
<g id="edge4" class="edge">
<title>test&#45;&gt;pulled</title>
<path fill="none" stroke="black" d="M323.09,-558.09C299.09,-544.67 264.94,-525.58 238.77,-510.94"/>
<polygon fill="black" stroke="black" points="240.31,-507.79 229.87,-505.96 236.89,-513.9 240.31,-507.79"/>
<text text-anchor="middle" x="293.39" y="-528.28" font-family="Times,serif" font-size="14.00">no</text>
</g>
<!-- wait -->
<g id="node9" class="node">
<title>wait</title>
<ellipse fill="none" stroke="black" cx="424.39" cy="-18" rx="82.59" ry="18"/>
<text text-anchor="middle" x="424.39" y="-14.3" font-family="Times,serif" font-size="14.00">Wait for a new edge</text>
</g>
<!-- test&#45;&gt;wait -->
<g id="edge2" class="edge">
<title>test&#45;&gt;wait</title>
<path fill="none" stroke="black" d="M388.36,-558.37C413.79,-544.25 443.39,-521.04 443.39,-489.48 443.39,-489.48 443.39,-489.48 443.39,-104 443.39,-84.09 438.37,-62.17 433.48,-45.58"/>
<polygon fill="black" stroke="black" points="436.82,-44.52 430.51,-36.01 430.13,-46.6 436.82,-44.52"/>
<text text-anchor="middle" x="452.89" y="-284.17" font-family="Times,serif" font-size="14.00">yes</text>
</g>
<!-- localConfidence -->
<g id="node4" class="node">
<title>localConfidence</title>
<ellipse fill="none" stroke="black" cx="200.39" cy="-392.61" rx="102.56" ry="26.74"/>
<text text-anchor="middle" x="200.39" y="-396.41" font-family="Times,serif" font-size="14.00">Are we confident in</text>
<text text-anchor="middle" x="200.39" y="-381.41" font-family="Times,serif" font-size="14.00">our local test coverage?</text>
</g>
<!-- pulled&#45;&gt;localConfidence -->
<g id="edge6" class="edge">
<title>pulled&#45;&gt;localConfidence</title>
<path fill="none" stroke="black" d="M200.39,-470.26C200.39,-458.96 200.39,-443.75 200.39,-429.86"/>
<polygon fill="black" stroke="black" points="203.89,-429.58 200.39,-419.58 196.89,-429.58 203.89,-429.58"/>
<text text-anchor="middle" x="209.89" y="-441.28" font-family="Times,serif" font-size="14.00">yes</text>
</g>
<!-- update -->
<g id="node8" class="node">
<title>update</title>
<ellipse fill="none" stroke="black" cx="75.39" cy="-18" rx="75.29" ry="18"/>
<text text-anchor="middle" x="75.39" y="-14.3" font-family="Times,serif" font-size="14.00">Production update</text>
</g>
<!-- pulled&#45;&gt;update -->
<g id="edge5" class="edge">
<title>pulled&#45;&gt;update</title>
<path fill="none" stroke="black" d="M122.9,-475.3C77.65,-463.28 29.39,-439.67 29.39,-393.61 29.39,-393.61 29.39,-393.61 29.39,-104 29.39,-81.91 41.55,-60.07 53.37,-44.06"/>
<polygon fill="black" stroke="black" points="56.42,-45.83 59.82,-35.79 50.91,-41.52 56.42,-45.83"/>
<text text-anchor="middle" x="36.39" y="-231.8" font-family="Times,serif" font-size="14.00">no</text>
</g>
<!-- redHatConfidence -->
<g id="node5" class="node">
<title>redHatConfidence</title>
<ellipse fill="none" stroke="black" cx="240.39" cy="-287.87" rx="118.17" ry="26.74"/>
<text text-anchor="middle" x="240.39" y="-291.67" font-family="Times,serif" font-size="14.00">Are we confident Red Hat&#39;s</text>
<text text-anchor="middle" x="240.39" y="-276.67" font-family="Times,serif" font-size="14.00">reasoning is exhaustive?</text>
</g>
<!-- localConfidence&#45;&gt;redHatConfidence -->
<g id="edge8" class="edge">
<title>localConfidence&#45;&gt;redHatConfidence</title>
<path fill="none" stroke="blue" stroke-width="3" d="M210.49,-365.68C215.37,-353.15 221.3,-337.92 226.59,-324.33"/>
<polygon fill="blue" stroke="blue" stroke-width="3" points="229.94,-325.38 230.3,-314.79 223.41,-322.84 229.94,-325.38"/>
<text text-anchor="middle" x="230.39" y="-336.54" font-family="Times,serif" font-size="14.00">no</text>
</g>
<!-- localConfidence&#45;&gt;update -->
<g id="edge7" class="edge">
<title>localConfidence&#45;&gt;update</title>
<path fill="none" stroke="orange" stroke-dasharray="5,2" d="M143.38,-370.05C110.41,-353.49 75.39,-326.93 75.39,-288.87 75.39,-288.87 75.39,-288.87 75.39,-104 75.39,-84.75 75.39,-63.05 75.39,-46.4"/>
<polygon fill="orange" stroke="orange" points="78.89,-46.26 75.39,-36.26 71.89,-46.26 78.89,-46.26"/>
<text text-anchor="middle" x="84.89" y="-188.3" font-family="Times,serif" font-size="14.00">yes</text>
</g>
<!-- bug -->
<g id="node6" class="node">
<title>bug</title>
<ellipse fill="none" stroke="orange" stroke-dasharray="5,2" cx="240.39" cy="-192" rx="120.48" ry="18"/>
<text text-anchor="middle" x="240.39" y="-188.3" font-family="Times,serif" font-size="14.00">What bug(s) did Red Hat link?</text>
</g>
<!-- redHatConfidence&#45;&gt;bug -->
<g id="edge10" class="edge">
<title>redHatConfidence&#45;&gt;bug</title>
<path fill="none" stroke="orange" stroke-dasharray="5,2" d="M240.39,-260.97C240.39,-248.34 240.39,-233.14 240.39,-220.32"/>
<polygon fill="orange" stroke="orange" points="243.89,-220.22 240.39,-210.22 236.89,-220.22 243.89,-220.22"/>
<text text-anchor="middle" x="249.89" y="-231.8" font-family="Times,serif" font-size="14.00">yes</text>
</g>
<!-- redHatConfidence&#45;&gt;wait -->
<g id="edge9" class="edge">
<title>redHatConfidence&#45;&gt;wait</title>
<path fill="none" stroke="blue" stroke-width="3" d="M297.7,-264.37C322.95,-251.82 351.01,-233.85 369.39,-210 407.42,-160.69 419.16,-85.99 422.79,-46.2"/>
<polygon fill="blue" stroke="blue" stroke-width="3" points="426.28,-46.43 423.59,-36.18 419.3,-45.87 426.28,-46.43"/>
<text text-anchor="middle" x="411.39" y="-144.8" font-family="Times,serif" font-size="14.00">no</text>
</g>
<!-- apply -->
<g id="node7" class="node">
<title>apply</title>
<ellipse fill="none" stroke="black" cx="240.39" cy="-105" rx="137.28" ry="18"/>
<text text-anchor="middle" x="240.39" y="-101.3" font-family="Times,serif" font-size="14.00">Do the bug(s) apply to my clusters?</text>
</g>
<!-- bug&#45;&gt;apply -->
<g id="edge11" class="edge">
<title>bug&#45;&gt;apply</title>
<path fill="none" stroke="black" d="M240.39,-173.8C240.39,-162.16 240.39,-146.55 240.39,-133.24"/>
<polygon fill="black" stroke="black" points="243.89,-133.18 240.39,-123.18 236.89,-133.18 243.89,-133.18"/>
</g>
<!-- apply&#45;&gt;update -->
<g id="edge13" class="edge">
<title>apply&#45;&gt;update</title>
<path fill="none" stroke="black" d="M208.19,-87.41C181.36,-73.59 143.06,-53.86 114.48,-39.14"/>
<polygon fill="black" stroke="black" points="116.06,-36.01 105.57,-34.55 112.86,-42.24 116.06,-36.01"/>
<text text-anchor="middle" x="175.39" y="-57.8" font-family="Times,serif" font-size="14.00">no</text>
</g>
<!-- apply&#45;&gt;wait -->
<g id="edge12" class="edge">
<title>apply&#45;&gt;wait</title>
<path fill="none" stroke="black" d="M275.87,-87.61C306.1,-73.65 349.61,-53.55 381.73,-38.71"/>
<polygon fill="black" stroke="black" points="383.28,-41.85 390.89,-34.48 380.34,-35.5 383.28,-41.85"/>
<text text-anchor="middle" x="353.89" y="-57.8" font-family="Times,serif" font-size="14.00">yes</text>
</g>
<!-- wait&#45;&gt;new -->
<g id="edge3" class="edge">
<title>wait&#45;&gt;new</title>
<path fill="none" stroke="black" d="M447.85,-35.32C466.82,-50.64 490.39,-75.41 490.39,-104 490.39,-576.48 490.39,-576.48 490.39,-576.48 490.39,-596.83 475.64,-613.54 459.78,-625.62"/>
<polygon fill="black" stroke="black" points="457.6,-622.88 451.46,-631.52 461.64,-628.59 457.6,-622.88"/>
</g>
</g>
</svg>
