<?xml version="1.0" encoding="UTF-8" standalone="no"?>
<!DOCTYPE svg PUBLIC "-//W3C//DTD SVG 1.1//EN"
 "http://www.w3.org/Graphics/SVG/1.1/DTD/svg11.dtd">
<!-- Generated by graphviz version 2.30.1 (20170916.1124)
 -->
<!-- Title: updateDecisions Pages: 1 -->
<svg width="548pt" height="682pt"
 viewBox="0.00 0.00 548.00 682.00" xmlns="http://www.w3.org/2000/svg" xmlns:xlink="http://www.w3.org/1999/xlink">
<g id="graph0" class="graph" transform="scale(1 1) rotate(0) translate(4 678)">
<title>updateDecisions</title>
<polygon fill="white" stroke="white" points="-4,5 -4,-678 545,-678 545,5 -4,5"/>
<!-- new -->
<g id="node1" class="node"><title>new</title>
<ellipse fill="none" stroke="black" cx="459" cy="-656" rx="80.389" ry="18"/>
<text text-anchor="middle" x="459" y="-652.3" font-family="Times,serif" font-size="14.00">New edge available</text>
</g>
<!-- test -->
<g id="node2" class="node"><title>test</title>
<ellipse fill="none" stroke="black" cx="378" cy="-582" rx="80.389" ry="18"/>
<text text-anchor="middle" x="378" y="-578.3" font-family="Times,serif" font-size="14.00">Do local tests pass?</text>
</g>
<!-- new&#45;&gt;test -->
<g id="edge1" class="edge"><title>new&#45;&gt;test</title>
<path fill="none" stroke="black" d="M440.213,-638.301C429.581,-628.85 416.114,-616.88 404.431,-606.495"/>
<polygon fill="black" stroke="black" points="406.484,-603.636 396.685,-599.609 401.834,-608.868 406.484,-603.636"/>
</g>
<!-- wait -->
<g id="node9" class="node"><title>wait</title>
<ellipse fill="none" stroke="black" cx="426" cy="-18" rx="83.2892" ry="18"/>
<text text-anchor="middle" x="426" y="-14.3" font-family="Times,serif" font-size="14.00">Wait for a new edge</text>
</g>
<!-- test&#45;&gt;wait -->
<g id="edge2" class="edge"><title>test&#45;&gt;wait</title>
<path fill="none" stroke="black" d="M401.81,-564.501C421.068,-549.021 445,-523.958 445,-495 445,-495 445,-495 445,-105 445,-84.8666 439.974,-62.6929 435.091,-45.9041"/>
<polygon fill="black" stroke="black" points="438.397,-44.7454 432.116,-36.2129 431.705,-46.7997 438.397,-44.7454"/>
<text text-anchor="middle" x="452" y="-287.3" font-family="Times,serif" font-size="14.00">no</text>
</g>
<!-- pulled -->
<g id="node3" class="node"><title>pulled</title>
<ellipse fill="none" stroke="black" cx="200" cy="-494" rx="112.16" ry="18"/>
<text text-anchor="middle" x="200" y="-490.3" font-family="Times,serif" font-size="14.00">Does Red Hat pull the edge?</text>
</g>
<!-- test&#45;&gt;pulled -->
<g id="edge4" class="edge"><title>test&#45;&gt;pulled</title>
<path fill="none" stroke="black" d="M345.766,-565.426C316.86,-551.461 274.244,-530.871 242.549,-515.557"/>
<polygon fill="black" stroke="black" points="244.033,-512.387 233.506,-511.188 240.987,-518.69 244.033,-512.387"/>
<text text-anchor="middle" x="314.5" y="-534.3" font-family="Times,serif" font-size="14.00">yes</text>
</g>
<!-- update -->
<g id="node8" class="node"><title>update</title>
<ellipse fill="none" stroke="black" cx="75" cy="-18" rx="75.0904" ry="18"/>
<text text-anchor="middle" x="75" y="-14.3" font-family="Times,serif" font-size="14.00">Production update</text>
</g>
<!-- pulled&#45;&gt;update -->
<g id="edge5" class="edge"><title>pulled&#45;&gt;update</title>
<path fill="none" stroke="black" d="M123.503,-480.662C77.9731,-468.463 29,-444.527 29,-398 29,-398 29,-398 29,-105 29,-82.3624 41.5461,-59.9139 53.5341,-43.6311"/>
<polygon fill="black" stroke="black" points="56.3157,-45.7555 59.6827,-35.7099 50.786,-41.4633 56.3157,-45.7555"/>
<text text-anchor="middle" x="36" y="-234.3" font-family="Times,serif" font-size="14.00">no</text>
</g>
<!-- localConfidence -->
<g id="node4" class="node"><title>localConfidence</title>
<ellipse fill="none" stroke="black" cx="200" cy="-397" rx="103.357" ry="26.7407"/>
<text text-anchor="middle" x="200" y="-400.8" font-family="Times,serif" font-size="14.00">Are we confident in</text>
<text text-anchor="middle" x="200" y="-385.8" font-family="Times,serif" font-size="14.00">our local test coverage?</text>
</g>
<!-- pulled&#45;&gt;localConfidence -->
<g id="edge6" class="edge"><title>pulled&#45;&gt;localConfidence</title>
<path fill="none" stroke="black" d="M200,-475.576C200,-463.938 200,-448.208 200,-433.954"/>
<polygon fill="black" stroke="black" points="203.5,-433.916 200,-423.916 196.5,-433.916 203.5,-433.916"/>
<text text-anchor="middle" x="209.5" y="-446.3" font-family="Times,serif" font-size="14.00">yes</text>
</g>
<!-- localConfidence&#45;&gt;update -->
<g id="edge7" class="edge"><title>localConfidence&#45;&gt;update</title>
<path fill="none" stroke="orange" stroke-dasharray="5,2" d="M143.716,-374.362C110.538,-357.543 75,-330.534 75,-292 75,-292 75,-292 75,-105 75,-85.4036 75,-63.2956 75,-46.4023"/>
<polygon fill="orange" stroke="orange" points="78.5001,-46.1328 75,-36.1328 71.5001,-46.1328 78.5001,-46.1328"/>
<text text-anchor="middle" x="84.5" y="-190.3" font-family="Times,serif" font-size="14.00">yes</text>
</g>
<!-- redHatConfidence -->
<g id="node5" class="node"><title>redHatConfidence</title>
<ellipse fill="none" stroke="black" cx="241" cy="-291" rx="118.13" ry="26.7407"/>
<text text-anchor="middle" x="241" y="-294.8" font-family="Times,serif" font-size="14.00">Are we confident Red Hat&#39;s</text>
<text text-anchor="middle" x="241" y="-279.8" font-family="Times,serif" font-size="14.00">reasoning is exhaustive?</text>
</g>
<!-- localConfidence&#45;&gt;redHatConfidence -->
<g id="edge8" class="edge"><title>localConfidence&#45;&gt;redHatConfidence</title>
<path fill="none" stroke="blue" stroke-width="3" d="M210.24,-370.025C215.328,-357.119 221.551,-341.333 227.066,-327.344"/>
<polygon fill="blue" stroke="blue" points="230.337,-328.591 230.748,-318.005 223.824,-326.024 230.337,-328.591"/>
<text text-anchor="middle" x="230" y="-340.3" font-family="Times,serif" font-size="14.00">no</text>
</g>
<!-- redHatConfidence&#45;&gt;wait -->
<g id="edge9" class="edge"><title>redHatConfidence&#45;&gt;wait</title>
<path fill="none" stroke="blue" stroke-width="3" d="M297.63,-267.303C323.051,-254.512 351.435,-236.186 370,-212 408.433,-161.932 420.513,-86.2424 424.292,-46.1491"/>
<polygon fill="blue" stroke="blue" points="427.79,-46.3233 425.137,-36.0662 420.814,-45.7393 427.79,-46.3233"/>
<text text-anchor="middle" x="412" y="-146.3" font-family="Times,serif" font-size="14.00">no</text>
</g>
<!-- bug -->
<g id="node6" class="node"><title>bug</title>
<ellipse fill="none" stroke="orange" stroke-dasharray="5,2" cx="241" cy="-194" rx="120.359" ry="18"/>
<text text-anchor="middle" x="241" y="-190.3" font-family="Times,serif" font-size="14.00">What bug(s) did Red Hat link?</text>
</g>
<!-- redHatConfidence&#45;&gt;bug -->
<g id="edge10" class="edge"><title>redHatConfidence&#45;&gt;bug</title>
<path fill="none" stroke="orange" stroke-dasharray="5,2" d="M241,-264.041C241,-251.165 241,-235.61 241,-222.527"/>
<polygon fill="orange" stroke="orange" points="244.5,-222.231 241,-212.231 237.5,-222.231 244.5,-222.231"/>
<text text-anchor="middle" x="250.5" y="-234.3" font-family="Times,serif" font-size="14.00">yes</text>
</g>
<!-- apply -->
<g id="node7" class="node"><title>apply</title>
<ellipse fill="none" stroke="black" cx="241" cy="-106" rx="137.183" ry="18"/>
<text text-anchor="middle" x="241" y="-102.3" font-family="Times,serif" font-size="14.00">Do the bug(s) apply to my clusters?</text>
</g>
<!-- bug&#45;&gt;apply -->
<g id="edge11" class="edge"><title>bug&#45;&gt;apply</title>
<path fill="none" stroke="black" d="M241,-175.597C241,-163.746 241,-147.817 241,-134.292"/>
<polygon fill="black" stroke="black" points="244.5,-134.084 241,-124.084 237.5,-134.084 244.5,-134.084"/>
</g>
<!-- apply&#45;&gt;wait -->
<g id="edge12" class="edge"><title>apply&#45;&gt;wait</title>
<path fill="none" stroke="black" d="M276.67,-88.4183C307.155,-74.2469 351.085,-53.8251 383.409,-38.7988"/>
<polygon fill="black" stroke="black" points="385.026,-41.9072 392.618,-34.5179 382.075,-35.5596 385.026,-41.9072"/>
<text text-anchor="middle" x="360.5" y="-58.3" font-family="Times,serif" font-size="14.00">yes</text>
</g>
<!-- apply&#45;&gt;update -->
<g id="edge13" class="edge"><title>apply&#45;&gt;update</title>
<path fill="none" stroke="black" d="M208.994,-88.4183C181.874,-74.3686 142.896,-54.1753 113.966,-39.187"/>
<polygon fill="black" stroke="black" points="115.442,-36.0103 104.953,-34.5179 112.222,-42.2257 115.442,-36.0103"/>
<text text-anchor="middle" x="180" y="-58.3" font-family="Times,serif" font-size="14.00">no</text>
</g>
<!-- wait&#45;&gt;new -->
<g id="edge3" class="edge"><title>wait&#45;&gt;new</title>
<path fill="none" stroke="black" d="M447.335,-35.653C464.925,-51.4148 487,-76.8102 487,-105 487,-583 487,-583 487,-583 487,-598.973 480.94,-615.666 474.459,-628.953"/>
<polygon fill="black" stroke="black" points="471.278,-627.484 469.745,-637.967 477.481,-630.727 471.278,-627.484"/>
</g>
</g>
</svg>
