<svg xmlns="http://www.w3.org/2000/svg" xmlns:xlink="http://www.w3.org/1999/xlink" contentStyleType="text/css" data-diagram-type="STATE" height="2874px" preserveAspectRatio="none" style="width:1196px;height:2874px;background:#FFFFFF;" version="1.1" viewBox="0 0 1196 2874" width="1196px" zoomAndPan="magnify"><defs/><g><g id="Info"><rect fill="#F1F1F1" height="169.8208" rx="5" ry="5" style="stroke:#181818;stroke-width:0.5;" width="377.3265" x="787.79" y="7"/><line style="stroke:#181818;stroke-width:0.5;" x1="787.79" x2="1165.1165" y1="36.0679" y2="36.0679"/><text fill="#000000" font-family="sans-serif" font-size="14" lengthAdjust="spacing" textLength="26.6839" x="963.1113" y="26.9659">Info</text><text fill="#000000" font-family="sans-serif" font-size="12" lengthAdjust="spacing" textLength="221.5576" x="792.79" y="53.896">x = node X offline and out of the cluster</text><text fill="#000000" font-family="sans-serif" font-size="12" lengthAdjust="spacing" textLength="279.326" x="792.79" y="70.2401">X = node X online and its RA not-starting|stopped</text><text fill="#000000" font-family="sans-serif" font-size="12" lengthAdjust="spacing" textLength="210.4575" x="792.79" y="86.5842">X^ = node X online and its RA starting</text><text fill="#000000" font-family="sans-serif" font-size="12" lengthAdjust="spacing" textLength="357.3265" x="792.79" y="102.9283">X" = node X online and its RA started (i.e. etcd instance running)</text><text fill="#000000" font-family="sans-serif" font-size="12" lengthAdjust="spacing" textLength="174.2892" x="792.79" y="119.2725">rev_x = etcd revision on node X</text><text fill="#000000" font-family="sans-serif" font-size="12" lengthAdjust="spacing" textLength="286.3581" x="792.79" y="135.6166">RA = etcd Resource Agent controlling etcd instance</text><text fill="#000000" font-family="sans-serif" font-size="12" lengthAdjust="spacing" textLength="178.1773" x="792.79" y="151.9607">e-members = Etcd Members list</text><text fill="#000000" font-family="sans-serif" font-size="12" lengthAdjust="spacing" textLength="201.9254" x="792.79" y="168.3048">e-endpoints = Etcd Endpoints status</text></g><rect fill="#555555" height="8" style="stroke:transparent;stroke-width:1;" width="80" x="605.46" y="469.49"/><g id="start"><rect fill="#F1F1F1" height="104.4444" rx="5" ry="5" style="stroke:#181818;stroke-width:0.5;" width="119.0847" x="585.92" y="237.82"/><line style="stroke:#181818;stroke-width:0.5;" x1="585.92" x2="705.0047" y1="266.8879" y2="266.8879"/><text fill="#000000" font-family="sans-serif" font-size="14" font-weight="bold" lengthAdjust="spacing" textLength="42.8258" x="624.0494" y="257.7859">START</text><text fill="#000000" font-family="sans-serif" font-size="12" lengthAdjust="spacing" textLength="36.4683" x="590.92" y="284.716">X" | Y"</text><text fill="#000000" font-family="sans-serif" font-size="12" lengthAdjust="spacing" textLength="78.7325" x="590.92" y="301.0601">rev_x == rev_y</text><text fill="#000000" font-family="sans-serif" font-size="12" lengthAdjust="spacing" textLength="99.0847" x="590.92" y="317.4042">e-members: [X, Y]</text><text fill="#000000" font-family="sans-serif" font-size="12" lengthAdjust="spacing" textLength="90.5647" x="590.92" y="333.7483">e-endpoints: OK</text></g><g id="gns1"><rect fill="#F1F1F1" height="104.4444" rx="5" ry="5" style="stroke:#181818;stroke-width:0.5;" width="110.5647" x="238.18" y="421.27"/><line style="stroke:#181818;stroke-width:0.5;" x1="238.18" x2="348.7447" y1="450.3379" y2="450.3379"/><text fill="#000000" font-family="sans-serif" font-size="14" lengthAdjust="spacing" textLength="31.9759" x="277.4744" y="441.2359">gns1</text><text fill="#000000" font-family="sans-serif" font-size="12" lengthAdjust="spacing" textLength="36.4683" x="243.18" y="468.166">X" | Y"</text><text fill="#000000" font-family="sans-serif" font-size="12" lengthAdjust="spacing" textLength="78.7325" x="243.18" y="484.5101">rev_x == rev_y</text><text fill="#000000" font-family="sans-serif" font-size="12" lengthAdjust="spacing" textLength="85.7166" x="243.18" y="500.8542">e-members: [Y]</text><text fill="#000000" font-family="sans-serif" font-size="12" lengthAdjust="spacing" textLength="90.5647" x="243.18" y="517.1983">e-endpoints: OK</text></g><g id="gns2"><rect fill="#F1F1F1" height="104.4444" rx="5" ry="5" style="stroke:#181818;stroke-width:0.5;" width="110.5647" x="262.18" y="604.71"/><line style="stroke:#181818;stroke-width:0.5;" x1="262.18" x2="372.7447" y1="633.7779" y2="633.7779"/><text fill="#000000" font-family="sans-serif" font-size="14" lengthAdjust="spacing" textLength="31.9759" x="301.4744" y="624.6759">gns2</text><text fill="#000000" font-family="sans-serif" font-size="12" lengthAdjust="spacing" textLength="31.5722" x="267.18" y="651.606">X | Y"</text><text fill="#000000" font-family="sans-serif" font-size="12" lengthAdjust="spacing" textLength="78.7325" x="267.18" y="667.9501">rev_x == rev_y</text><text fill="#000000" font-family="sans-serif" font-size="12" lengthAdjust="spacing" textLength="85.7166" x="267.18" y="684.2942">e-members: [Y]</text><text fill="#000000" font-family="sans-serif" font-size="12" lengthAdjust="spacing" textLength="90.5647" x="267.18" y="700.6383">e-endpoints: OK</text></g><g id="gns3"><rect fill="#F1F1F1" height="104.4444" rx="5" ry="5" style="stroke:#181818;stroke-width:0.5;" width="110.5647" x="299.18" y="841.15"/><line style="stroke:#181818;stroke-width:0.5;" x1="299.18" x2="409.7447" y1="870.2179" y2="870.2179"/><text fill="#000000" font-family="sans-serif" font-size="14" lengthAdjust="spacing" textLength="31.9759" x="338.4744" y="861.1159">gns3</text><text fill="#000000" font-family="sans-serif" font-size="12" lengthAdjust="spacing" textLength="30.8882" x="304.18" y="888.046">x | Y"</text><text fill="#000000" font-family="sans-serif" font-size="12" lengthAdjust="spacing" textLength="78.7325" x="304.18" y="904.3901">rev_x == rev_y</text><text fill="#000000" font-family="sans-serif" font-size="12" lengthAdjust="spacing" textLength="85.7166" x="304.18" y="920.7342">e-members: [Y]</text><text fill="#000000" font-family="sans-serif" font-size="12" lengthAdjust="spacing" textLength="90.5647" x="304.18" y="937.0783">e-endpoints: OK</text></g><g id="gns4"><rect fill="#F1F1F1" height="104.4444" rx="5" ry="5" style="stroke:#181818;stroke-width:0.5;" width="178.4971" x="339.21" y="1153.72"/><line style="stroke:#181818;stroke-width:0.5;" x1="339.21" x2="517.7071" y1="1182.7879" y2="1182.7879"/><text fill="#000000" font-family="sans-serif" font-size="14" lengthAdjust="spacing" textLength="31.9759" x="412.4706" y="1173.6859">gns4</text><text fill="#000000" font-family="sans-serif" font-size="12" lengthAdjust="spacing" textLength="30.8882" x="344.21" y="1200.616">x | Y"</text><text fill="#000000" font-family="sans-serif" font-size="12" lengthAdjust="spacing" textLength="71.8685" x="344.21" y="1216.9601">rev_x &lt; rev_y</text><text fill="#000000" font-family="sans-serif" font-size="12" lengthAdjust="spacing" textLength="158.4971" x="344.21" y="1233.3042">e-members: [X as learner, Y]</text><text fill="#000000" font-family="sans-serif" font-size="12" lengthAdjust="spacing" textLength="90.5647" x="344.21" y="1249.6483">e-endpoints: OK</text></g><g id="node_fenced"><rect fill="#ADD8E6" height="50" rx="5" ry="5" style="stroke:#181818;stroke-width:0.5;" width="129.6476" x="580.63" y="1067.16"/><line style="stroke:#181818;stroke-width:0.5;" x1="580.63" x2="710.2776" y1="1096.2279" y2="1096.2279"/><text fill="#000000" font-family="sans-serif" font-size="14" lengthAdjust="spacing" textLength="109.6476" x="590.63" y="1087.1259">Node X is fenced</text></g><g id="ungns1"><rect fill="#F1F1F1" height="104.4444" rx="5" ry="5" style="stroke:#181818;stroke-width:0.5;" width="119.6847" x="548.62" y="1288.16"/><line style="stroke:#181818;stroke-width:0.5;" x1="548.62" x2="668.3047" y1="1317.2279" y2="1317.2279"/><text fill="#000000" font-family="sans-serif" font-size="14" lengthAdjust="spacing" textLength="49.2798" x="583.8225" y="1308.1259">ungns1</text><text fill="#000000" font-family="sans-serif" font-size="12" lengthAdjust="spacing" textLength="30.8882" x="553.62" y="1335.056">x | Y"</text><text fill="#000000" font-family="sans-serif" font-size="12" lengthAdjust="spacing" textLength="78.7325" x="553.62" y="1351.4001">rev_x == rev_y</text><text fill="#000000" font-family="sans-serif" font-size="12" lengthAdjust="spacing" textLength="87.8167" x="553.62" y="1367.7442">e-members: NA</text><text fill="#000000" font-family="sans-serif" font-size="12" lengthAdjust="spacing" textLength="99.6847" x="553.62" y="1384.0883">e-endpoints: NOK</text></g><g id="ungns2"><rect fill="#F1F1F1" height="104.4444" rx="5" ry="5" style="stroke:#181818;stroke-width:0.5;" width="119.6847" x="529.62" y="1471.61"/><line style="stroke:#181818;stroke-width:0.5;" x1="529.62" x2="649.3047" y1="1500.6779" y2="1500.6779"/><text fill="#000000" font-family="sans-serif" font-size="14" lengthAdjust="spacing" textLength="49.2798" x="564.8225" y="1491.5759">ungns2</text><text fill="#000000" font-family="sans-serif" font-size="12" lengthAdjust="spacing" textLength="32.8562" x="534.62" y="1518.506">x | Y^</text><text fill="#000000" font-family="sans-serif" font-size="12" lengthAdjust="spacing" textLength="78.7325" x="534.62" y="1534.8501">rev_x == rev_y</text><text fill="#000000" font-family="sans-serif" font-size="12" lengthAdjust="spacing" textLength="87.8167" x="534.62" y="1551.1942">e-members: NA</text><text fill="#000000" font-family="sans-serif" font-size="12" lengthAdjust="spacing" textLength="99.6847" x="534.62" y="1567.5383">e-endpoints: NOK</text></g><g id="ungns3"><rect fill="#F1F1F1" height="104.4444" rx="5" ry="5" style="stroke:#181818;stroke-width:0.5;" width="110.5647" x="524.18" y="1673.05"/><line style="stroke:#181818;stroke-width:0.5;" x1="524.18" x2="634.7447" y1="1702.1179" y2="1702.1179"/><text fill="#000000" font-family="sans-serif" font-size="14" lengthAdjust="spacing" textLength="49.2798" x="554.8224" y="1693.0159">ungns3</text><text fill="#000000" font-family="sans-serif" font-size="12" lengthAdjust="spacing" textLength="30.8882" x="529.18" y="1719.946">x | Y"</text><text fill="#000000" font-family="sans-serif" font-size="12" lengthAdjust="spacing" textLength="71.8685" x="529.18" y="1736.2901">rev_x &lt; rev_y</text><text fill="#000000" font-family="sans-serif" font-size="12" lengthAdjust="spacing" textLength="85.7166" x="529.18" y="1752.6342">e-members: [Y]</text><text fill="#000000" font-family="sans-serif" font-size="12" lengthAdjust="spacing" textLength="90.5647" x="529.18" y="1768.9783">e-endpoints: OK</text></g><g id="ungns4"><rect fill="#F1F1F1" height="104.4444" rx="5" ry="5" style="stroke:#181818;stroke-width:0.5;" width="178.4971" x="484.21" y="1874.49"/><line style="stroke:#181818;stroke-width:0.5;" x1="484.21" x2="662.7071" y1="1903.5579" y2="1903.5579"/><text fill="#000000" font-family="sans-serif" font-size="14" lengthAdjust="spacing" textLength="49.2798" x="548.8187" y="1894.4559">ungns4</text><text fill="#000000" font-family="sans-serif" font-size="12" lengthAdjust="spacing" textLength="30.8882" x="489.21" y="1921.386">x | Y"</text><text fill="#000000" font-family="sans-serif" font-size="12" lengthAdjust="spacing" textLength="71.8685" x="489.21" y="1937.7301">rev_x &lt; rev_y</text><text fill="#000000" font-family="sans-serif" font-size="12" lengthAdjust="spacing" textLength="158.4971" x="489.21" y="1954.0742">e-members: [X as learner, Y]</text><text fill="#000000" font-family="sans-serif" font-size="12" lengthAdjust="spacing" textLength="90.5647" x="489.21" y="1970.4183">e-endpoints: OK</text></g><g id="rejoin"><rect fill="#F1F1F1" height="77.2038" rx="5" ry="5" style="stroke:#181818;stroke-width:0.5;" width="195.9653" x="351.48" y="2039.94"/><line style="stroke:#181818;stroke-width:0.5;" x1="351.48" x2="547.4453" y1="2107.1438" y2="2107.1438"/><text fill="#000000" font-family="sans-serif" font-size="14" lengthAdjust="spacing" textLength="175.9653" x="361.48" y="2059.9059">from now on the scenarios</text><text fill="#000000" font-family="sans-serif" font-size="14" lengthAdjust="spacing" textLength="94.1216" x="361.48" y="2078.9739">are equivalent</text><text fill="#000000" font-family="sans-serif" font-size="14" lengthAdjust="spacing" textLength="104.6216" x="361.48" y="2098.0418">(gns4 &#8776; ungns4)</text></g><g id="netfail1"><rect fill="#F1F1F1" height="104.4444" rx="5" ry="5" style="stroke:#181818;stroke-width:0.5;" width="119.6847" x="937.62" y="421.27"/><line style="stroke:#181818;stroke-width:0.5;" x1="937.62" x2="1057.3047" y1="450.3379" y2="450.3379"/><text fill="#000000" font-family="sans-serif" font-size="14" lengthAdjust="spacing" textLength="49.5038" x="972.7105" y="441.2359">netfail1</text><text fill="#000000" font-family="sans-serif" font-size="12" lengthAdjust="spacing" textLength="36.4683" x="942.62" y="468.166">X" | Y"</text><text fill="#000000" font-family="sans-serif" font-size="12" lengthAdjust="spacing" textLength="78.7325" x="942.62" y="484.5101">rev_x == rev_y</text><text fill="#000000" font-family="sans-serif" font-size="12" lengthAdjust="spacing" textLength="99.0847" x="942.62" y="500.8542">e-members: [X, Y]</text><text fill="#000000" font-family="sans-serif" font-size="12" lengthAdjust="spacing" textLength="99.6847" x="942.62" y="517.1983">e-endpoints: NOK</text></g><g id="netfail2"><rect fill="#F1F1F1" height="104.4444" rx="5" ry="5" style="stroke:#181818;stroke-width:0.5;" width="119.6847" x="899.62" y="604.71"/><line style="stroke:#181818;stroke-width:0.5;" x1="899.62" x2="1019.3047" y1="633.7779" y2="633.7779"/><text fill="#000000" font-family="sans-serif" font-size="14" lengthAdjust="spacing" textLength="49.5038" x="934.7105" y="624.6759">netfail2</text><text fill="#000000" font-family="sans-serif" font-size="12" lengthAdjust="spacing" textLength="36.4683" x="904.62" y="651.606">X" | Y"</text><text fill="#000000" font-family="sans-serif" font-size="12" lengthAdjust="spacing" textLength="78.7325" x="904.62" y="667.9501">rev_x == rev_y</text><text fill="#000000" font-family="sans-serif" font-size="12" lengthAdjust="spacing" textLength="99.0847" x="904.62" y="684.2942">e-members: [X, Y]</text><text fill="#000000" font-family="sans-serif" font-size="12" lengthAdjust="spacing" textLength="99.6847" x="904.62" y="700.6383">e-endpoints: NOK</text></g><g id="netfail3"><rect fill="#F1F1F1" height="104.4444" rx="5" ry="5" style="stroke:#181818;stroke-width:0.5;" width="119.6847" x="821.62" y="841.15"/><line style="stroke:#181818;stroke-width:0.5;" x1="821.62" x2="941.3047" y1="870.2179" y2="870.2179"/><text fill="#000000" font-family="sans-serif" font-size="14" lengthAdjust="spacing" textLength="49.5038" x="856.7105" y="861.1159">netfail3</text><text fill="#000000" font-family="sans-serif" font-size="12" lengthAdjust="spacing" textLength="36.4683" x="826.62" y="888.046">X" | Y"</text><text fill="#000000" font-family="sans-serif" font-size="12" lengthAdjust="spacing" textLength="78.7325" x="826.62" y="904.3901">rev_x == rev_y</text><text fill="#000000" font-family="sans-serif" font-size="12" lengthAdjust="spacing" textLength="99.0847" x="826.62" y="920.7342">e-members: [X, Y]</text><text fill="#000000" font-family="sans-serif" font-size="12" lengthAdjust="spacing" textLength="99.6847" x="826.62" y="937.0783">e-endpoints: NOK</text></g><g id="common1"><rect fill="#F1F1F1" height="104.4444" rx="5" ry="5" style="stroke:#181818;stroke-width:0.5;" width="178.4971" x="360.21" y="2196.14"/><line style="stroke:#181818;stroke-width:0.5;" x1="360.21" x2="538.7071" y1="2225.2079" y2="2225.2079"/><text fill="#000000" font-family="sans-serif" font-size="14" lengthAdjust="spacing" textLength="66.4997" x="416.2087" y="2216.1059">common1</text><text fill="#000000" font-family="sans-serif" font-size="12" lengthAdjust="spacing" textLength="31.5722" x="365.21" y="2243.036">X | Y"</text><text fill="#000000" font-family="sans-serif" font-size="12" lengthAdjust="spacing" textLength="71.8685" x="365.21" y="2259.3801">rev_x &lt; rev_y</text><text fill="#000000" font-family="sans-serif" font-size="12" lengthAdjust="spacing" textLength="158.4971" x="365.21" y="2275.7242">e-members: [X as learner, Y]</text><text fill="#000000" font-family="sans-serif" font-size="12" lengthAdjust="spacing" textLength="90.5647" x="365.21" y="2292.0683">e-endpoints: OK</text></g><g id="common2"><rect fill="#F1F1F1" height="104.4444" rx="5" ry="5" style="stroke:#181818;stroke-width:0.5;" width="178.4971" x="360.21" y="2379.59"/><line style="stroke:#181818;stroke-width:0.5;" x1="360.21" x2="538.7071" y1="2408.6579" y2="2408.6579"/><text fill="#000000" font-family="sans-serif" font-size="14" lengthAdjust="spacing" textLength="66.4997" x="416.2087" y="2399.5559">common2</text><text fill="#000000" font-family="sans-serif" font-size="12" lengthAdjust="spacing" textLength="38.4363" x="365.21" y="2426.486">X^ | Y"</text><text fill="#000000" font-family="sans-serif" font-size="12" lengthAdjust="spacing" textLength="71.8685" x="365.21" y="2442.8301">rev_x &lt; rev_y</text><text fill="#000000" font-family="sans-serif" font-size="12" lengthAdjust="spacing" textLength="158.4971" x="365.21" y="2459.1742">e-members: [X as learner, Y]</text><text fill="#000000" font-family="sans-serif" font-size="12" lengthAdjust="spacing" textLength="90.5647" x="365.21" y="2475.5183">e-endpoints: OK</text></g><g id="common3"><rect fill="#F1F1F1" height="104.4444" rx="5" ry="5" style="stroke:#181818;stroke-width:0.5;" width="178.4971" x="360.21" y="2581.03"/><line style="stroke:#181818;stroke-width:0.5;" x1="360.21" x2="538.7071" y1="2610.0979" y2="2610.0979"/><text fill="#000000" font-family="sans-serif" font-size="14" lengthAdjust="spacing" textLength="66.4997" x="416.2087" y="2600.9959">common3</text><text fill="#000000" font-family="sans-serif" font-size="12" lengthAdjust="spacing" textLength="36.4683" x="365.21" y="2627.926">X" | Y"</text><text fill="#000000" font-family="sans-serif" font-size="12" lengthAdjust="spacing" textLength="71.8685" x="365.21" y="2644.2701">rev_x &lt; rev_y</text><text fill="#000000" font-family="sans-serif" font-size="12" lengthAdjust="spacing" textLength="158.4971" x="365.21" y="2660.6142">e-members: [X as learner, Y]</text><text fill="#000000" font-family="sans-serif" font-size="12" lengthAdjust="spacing" textLength="90.5647" x="365.21" y="2676.9583">e-endpoints: OK</text></g><g id="common4"><rect fill="#90EE90" height="104.4444" rx="5" ry="5" style="stroke:#181818;stroke-width:0.5;" width="119.0847" x="389.92" y="2764.48"/><line style="stroke:#181818;stroke-width:0.5;" x1="389.92" x2="509.0047" y1="2793.5479" y2="2793.5479"/><text fill="#000000" font-family="sans-serif" font-size="14" lengthAdjust="spacing" textLength="66.4997" x="416.2125" y="2784.4459">common4</text><text fill="#000000" font-family="sans-serif" font-size="12" lengthAdjust="spacing" textLength="36.4683" x="394.92" y="2811.376">X" | Y"</text><text fill="#000000" font-family="sans-serif" font-size="12" lengthAdjust="spacing" textLength="78.7325" x="394.92" y="2827.7201">rev_x == rev_y</text><text fill="#000000" font-family="sans-serif" font-size="12" lengthAdjust="spacing" textLength="99.0847" x="394.92" y="2844.0642">e-members: [X, Y]</text><text fill="#000000" font-family="sans-serif" font-size="12" lengthAdjust="spacing" textLength="90.5647" x="394.92" y="2860.4083">e-endpoints: OK</text></g><g id="elem_GMN2"><path d="M537.95,65.35 L537.95,118.468 A5,5 0 0 0 542.95,123.468 L641.46,123.468 L645.46,237.64 L649.46,123.468 L747.9622,123.468 A5,5 0 0 0 752.9622,118.468 L752.9622,70.35 L742.9622,60.35 L542.95,60.35 A5,5 0 0 0 537.95,65.35 " fill="#FEFFDD" style="stroke:#181818;stroke-width:0.5;"/><path d="M742.9622,60.35 L742.9622,67.85 A2.5,2.5 0 0 0 745.4622,70.35 L752.9622,70.35 L742.9622,60.35 " fill="#FEFFDD" style="stroke:#181818;stroke-width:0.5;"/><text fill="#000000" font-family="sans-serif" font-size="13" lengthAdjust="spacing" textLength="180.9862" x="543.95" y="79.247">Both X and Y online, and both</text><text fill="#000000" font-family="sans-serif" font-size="13" lengthAdjust="spacing" textLength="194.0122" x="543.95" y="96.953">RA started, running etcd in sync</text><text fill="#000000" font-family="sans-serif" font-size="13" lengthAdjust="spacing" textLength="148.1091" x="543.95" y="114.659">(same revision number).</text></g><g id="elem_GMN5"><path d="M174.59,263.48 L174.59,316.598 A5,5 0 0 0 179.59,321.598 L289.46,321.598 L293.46,420.91 L297.46,321.598 L407.3262,321.598 A5,5 0 0 0 412.3262,316.598 L412.3262,268.48 L402.3262,258.48 L179.59,258.48 A5,5 0 0 0 174.59,263.48 " fill="#FEFFDD" style="stroke:#181818;stroke-width:0.5;"/><path d="M402.3262,258.48 L402.3262,265.98 A2.5,2.5 0 0 0 404.8262,268.48 L412.3262,268.48 L402.3262,258.48 " fill="#FEFFDD" style="stroke:#181818;stroke-width:0.5;"/><text fill="#000000" font-family="sans-serif" font-size="13" font-weight="bold" lengthAdjust="spacing" textLength="168.4672" x="180.59" y="277.377">etcd on Y keeps e-quorum</text><text fill="#000000" font-family="sans-serif" font-size="13" lengthAdjust="spacing" textLength="216.7362" x="180.59" y="295.083">and goes standalone automatically.</text><text fill="#000000" font-family="sans-serif" font-size="13" lengthAdjust="spacing" textLength="165.3212" x="180.59" y="312.789">RA on Y continues running.</text></g><g id="elem_GMN8"><path d="M6,446.93 L6,500.048 A5,5 0 0 0 11,505.048 L197.9162,505.048 A5,5 0 0 0 202.9162,500.048 L202.9162,477.49 L237.87,473.49 L202.9162,469.49 L202.9162,451.93 L192.9162,441.93 L11,441.93 A5,5 0 0 0 6,446.93 " fill="#FEFFDD" style="stroke:#181818;stroke-width:0.5;"/><path d="M192.9162,441.93 L192.9162,449.43 A2.5,2.5 0 0 0 195.4162,451.93 L202.9162,451.93 L192.9162,441.93 " fill="#FEFFDD" style="stroke:#181818;stroke-width:0.5;"/><text fill="#000000" font-family="sans-serif" font-size="13" lengthAdjust="spacing" textLength="175.9162" x="12" y="460.827">Cluster of 1 node: the cluster</text><text fill="#000000" font-family="sans-serif" font-size="13" lengthAdjust="spacing" textLength="164.0862" x="12" y="478.533">is still fully functional, even</text><text fill="#000000" font-family="sans-serif" font-size="13" lengthAdjust="spacing" textLength="166.4002" x="12" y="496.239">though in a degraded state</text></g><g id="elem_GMN11"><path d="M444.76,866.82 L444.76,889.38 L410.15,893.38 L444.76,897.38 L444.76,919.938 A5,5 0 0 0 449.76,924.938 L583.1551,924.938 A5,5 0 0 0 588.1551,919.938 L588.1551,871.82 L578.1551,861.82 L449.76,861.82 A5,5 0 0 0 444.76,866.82 " fill="#FEFFDD" style="stroke:#181818;stroke-width:0.5;"/><path d="M578.1551,861.82 L578.1551,869.32 A2.5,2.5 0 0 0 580.6551,871.82 L588.1551,871.82 L578.1551,861.82 " fill="#FEFFDD" style="stroke:#181818;stroke-width:0.5;"/><text fill="#000000" font-family="sans-serif" font-size="13" lengthAdjust="spacing" textLength="122.3951" x="450.76" y="880.717">RA on Y detects that</text><text fill="#000000" font-family="sans-serif" font-size="13" lengthAdjust="spacing" textLength="103.2071" x="450.76" y="898.423">etcd on X left the</text><text fill="#000000" font-family="sans-serif" font-size="13" lengthAdjust="spacing" textLength="73.3461" x="450.76" y="916.129">member list</text></g><g id="elem_GMN14"><path d="M107.27,2405.25 L107.27,2458.368 A5,5 0 0 0 112.27,2463.368 L320.6492,2463.368 A5,5 0 0 0 325.6492,2458.368 L325.6492,2435.81 L359.85,2431.81 L325.6492,2427.81 L325.6492,2410.25 L315.6492,2400.25 L112.27,2400.25 A5,5 0 0 0 107.27,2405.25 " fill="#FEFFDD" style="stroke:#181818;stroke-width:0.5;"/><path d="M315.6492,2400.25 L315.6492,2407.75 A2.5,2.5 0 0 0 318.1492,2410.25 L325.6492,2410.25 L315.6492,2400.25 " fill="#FEFFDD" style="stroke:#181818;stroke-width:0.5;"/><text fill="#000000" font-family="sans-serif" font-size="13" lengthAdjust="spacing" textLength="197.3792" x="113.27" y="2419.147">RA on X detects that RA on Y has</text><text fill="#000000" font-family="sans-serif" font-size="13" lengthAdjust="spacing" textLength="186.2122" x="113.27" y="2436.853">started, so a cluster must exist</text><text fill="#000000" font-family="sans-serif" font-size="13" lengthAdjust="spacing" textLength="182.4812" x="113.27" y="2454.559">already. RA on X can only join.</text></g><g id="elem_GMN17"><path d="M745.42,1065.6 L745.42,1088.16 L710.55,1092.16 L745.42,1096.16 L745.42,1118.718 A5,5 0 0 0 750.42,1123.718 L970.4862,1123.718 A5,5 0 0 0 975.4862,1118.718 L975.4862,1070.6 L965.4862,1060.6 L750.42,1060.6 A5,5 0 0 0 745.42,1065.6 " fill="#FEFFDD" style="stroke:#181818;stroke-width:0.5;"/><path d="M965.4862,1060.6 L965.4862,1068.1 A2.5,2.5 0 0 0 967.9862,1070.6 L975.4862,1070.6 L965.4862,1060.6 " fill="#FEFFDD" style="stroke:#181818;stroke-width:0.5;"/><text fill="#000000" font-family="sans-serif" font-size="13" lengthAdjust="spacing" textLength="209.0662" x="751.42" y="1079.497">NOTE: this operation is performed</text><text fill="#000000" font-family="sans-serif" font-size="13" lengthAdjust="spacing" textLength="184.9121" x="751.42" y="1097.203">by the pacemaker fence agent</text><text fill="#000000" font-family="sans-serif" font-size="13" lengthAdjust="spacing" textLength="111.4491" x="751.42" y="1114.909">not by the etcd RA</text></g><g id="elem_GMN20"><path d="M703.13,1304.97 L703.13,1336.38 L668.59,1340.38 L703.13,1344.38 L703.13,1375.7941 A5,5 0 0 0 708.13,1380.7941 L978.7923,1380.7941 A5,5 0 0 0 983.7923,1375.7941 L983.7923,1309.97 L973.7923,1299.97 L708.13,1299.97 A5,5 0 0 0 703.13,1304.97 " fill="#FEFFDD" style="stroke:#181818;stroke-width:0.5;"/><path d="M973.7923,1299.97 L973.7923,1307.47 A2.5,2.5 0 0 0 976.2923,1309.97 L983.7923,1309.97 L973.7923,1299.97 " fill="#FEFFDD" style="stroke:#181818;stroke-width:0.5;"/><text fill="#000000" font-family="sans-serif" font-size="13" lengthAdjust="spacing" textLength="10.92" x="709.13" y="1318.867">1.</text><text fill="#000000" font-family="sans-serif" font-size="13" font-weight="bold" lengthAdjust="spacing" textLength="208.9881" x="723.43" y="1318.867">RA on Y detects e-quorum is lost</text><text fill="#000000" font-family="sans-serif" font-size="13" lengthAdjust="spacing" textLength="259.6623" x="709.13" y="1336.573">by monitoring membership and endpoints</text><text fill="#000000" font-family="sans-serif" font-size="13" lengthAdjust="spacing" textLength="253.8642" x="709.13" y="1354.279">2. RA on Y prepares to force a new cluster</text><text fill="#000000" font-family="sans-serif" font-size="13" lengthAdjust="spacing" textLength="124.4751" x="709.13" y="1371.9851">to restore e-quorum</text></g><g id="elem_GMN23"><path d="M669.42,1698.71 L669.42,1721.27 L634.93,1725.27 L669.42,1729.27 L669.42,1751.828 A5,5 0 0 0 674.42,1756.828 L884.5022,1756.828 A5,5 0 0 0 889.5022,1751.828 L889.5022,1703.71 L879.5022,1693.71 L674.42,1693.71 A5,5 0 0 0 669.42,1698.71 " fill="#FEFFDD" style="stroke:#181818;stroke-width:0.5;"/><path d="M879.5022,1693.71 L879.5022,1701.21 A2.5,2.5 0 0 0 882.0022,1703.71 L889.5022,1703.71 L879.5022,1693.71 " fill="#FEFFDD" style="stroke:#181818;stroke-width:0.5;"/><text fill="#000000" font-family="sans-serif" font-size="13" lengthAdjust="spacing" textLength="175.9162" x="675.42" y="1712.607">Cluster of 1 node: the cluster</text><text fill="#000000" font-family="sans-serif" font-size="13" lengthAdjust="spacing" textLength="155.6881" x="675.42" y="1730.313">is already fully functional,</text><text fill="#000000" font-family="sans-serif" font-size="13" lengthAdjust="spacing" textLength="199.0822" x="675.42" y="1748.019">even though in a degraded state</text></g><!--link start to something_happens--><g id="link_start_something_happens"><path d="M645.46,342.55 C645.46,389.49 645.46,447.77 645.46,463.11 " fill="transparent" id="start-to-something_happens" style="stroke:#181818;stroke-width:1;"/><polygon fill="#181818" points="645.46,469.11,649.46,460.11,645.46,464.11,641.46,460.11,645.46,469.11" style="stroke:#181818;stroke-width:1;"/><text fill="#000000" font-family="sans-serif" font-size="13" lengthAdjust="spacing" textLength="121.9791" x="646.46" y="387.167">something happens</text></g><!--reverse link gns1 to something_happens--><g id="link_gns1_something_happens"><path d="M355.23,473.49 C426.48,473.49 542.06,473.49 605.02,473.49 " fill="transparent" id="gns1-backto-something_happens" style="stroke:#181818;stroke-width:1;"/><polygon fill="#181818" points="349.23,473.49,358.23,477.49,354.23,473.49,358.23,469.49,349.23,473.49" style="stroke:#181818;stroke-width:1;"/><text fill="#000000" font-family="sans-serif" font-size="13" lengthAdjust="spacing" textLength="220.3242" x="367.1" y="430.387">[start Graceful Node Shutdown of X]</text><text fill="#000000" font-family="sans-serif" font-size="13" lengthAdjust="spacing" textLength="154.9341" x="401.485" y="448.093">RA on X makes etcd leave</text><text fill="#000000" font-family="sans-serif" font-size="13" lengthAdjust="spacing" textLength="96.7851" x="430.5596" y="465.799">the member list</text></g><!--link gns1 to gns2--><g id="link_gns1_gns2"><path d="M300.27,526 C303.51,550.51 306.5919,573.812 309.8419,598.342 " fill="transparent" id="gns1-to-gns2" style="stroke:#181818;stroke-width:1;"/><polygon fill="#181818" points="310.63,604.29,313.4133,594.8426,309.9733,599.3333,305.4826,595.8933,310.63,604.29" style="stroke:#181818;stroke-width:1;"/><text fill="#000000" font-family="sans-serif" font-size="13" lengthAdjust="spacing" textLength="112.6971" x="307.46" y="570.607">RA on X stops etcd</text></g><!--link gns2 to gns3--><g id="link_gns2_gns3"><path d="M325.58,709.38 C331.75,748.47 339.2538,796.0635 345.4238,835.1235 " fill="transparent" id="gns2-to-gns3" style="stroke:#181818;stroke-width:1;"/><polygon fill="#181818" points="346.36,841.05,348.9068,831.5361,345.5799,836.1112,341.0047,832.7843,346.36,841.05" style="stroke:#181818;stroke-width:1;"/><text fill="#000000" font-family="sans-serif" font-size="13" lengthAdjust="spacing" textLength="81.7051" x="342.46" y="780.547">X shuts down</text></g><!--link gns3 to gns4--><g id="link_gns3_gns4"><path d="M366.76,946.01 C380.47,1003.53 401.0984,1090.1436 414.7984,1147.6036 " fill="transparent" id="gns3-to-gns4" style="stroke:#181818;stroke-width:1;"/><polygon fill="#181818" points="416.19,1153.44,417.9936,1143.7577,415.0304,1148.5763,410.2117,1145.6131,416.19,1153.44" style="stroke:#181818;stroke-width:1;"/><text fill="#000000" font-family="sans-serif" font-size="13" lengthAdjust="spacing" textLength="122.1481" x="390.7675" y="990.497">RA on Y adds X back</text><text fill="#000000" font-family="sans-serif" font-size="13" lengthAdjust="spacing" textLength="123.3831" x="391.84" y="1008.203">as learning member</text><text fill="#000000" font-family="sans-serif" font-size="13" lengthAdjust="spacing" textLength="116.7271" x="395.168" y="1025.909">(revision increases)</text></g><!--link rejoin to common1--><g id="link_rejoin_common1"><path d="M449.46,2117.62 C449.46,2140.74 449.46,2164.54 449.46,2189.76 " fill="transparent" id="rejoin-to-common1" style="stroke:#181818;stroke-width:1;"/><polygon fill="#181818" points="449.46,2195.76,453.46,2186.76,449.46,2190.76,445.46,2186.76,449.46,2195.76" style="stroke:#181818;stroke-width:1;"/><text fill="#000000" font-family="sans-serif" font-size="13" lengthAdjust="spacing" textLength="93.7821" x="450.46" y="2162.037">X is back online</text></g><!--link common1 to common2--><g id="link_common1_common2"><path d="M449.46,2300.87 C449.46,2325.39 449.46,2348.64 449.46,2373.17 " fill="transparent" id="common1-to-common2" style="stroke:#181818;stroke-width:1;"/><polygon fill="#181818" points="449.46,2379.17,453.46,2370.17,449.46,2374.17,445.46,2370.17,449.46,2379.17" style="stroke:#181818;stroke-width:1;"/><text fill="#000000" font-family="sans-serif" font-size="13" lengthAdjust="spacing" textLength="97.7081" x="450.46" y="2345.487">RA on X starting</text></g><!--link common2 to common3--><g id="link_common2_common3"><path d="M449.46,2484.43 C449.46,2514.09 449.46,2545.22 449.46,2574.85 " fill="transparent" id="common2-to-common3" style="stroke:#181818;stroke-width:1;"/><polygon fill="#181818" points="449.46,2580.85,453.46,2571.85,449.46,2575.85,445.46,2571.85,449.46,2580.85" style="stroke:#181818;stroke-width:1;"/><text fill="#000000" font-family="sans-serif" font-size="13" lengthAdjust="spacing" textLength="141.7651" x="450.46" y="2528.927">RA on X starts etcd as a</text><text fill="#000000" font-family="sans-serif" font-size="13" lengthAdjust="spacing" textLength="97.7081" x="474.1785" y="2546.633">joining member</text></g><!--link common3 to common4--><g id="link_common3_common4"><path d="M449.46,2685.76 C449.46,2710.28 449.46,2733.53 449.46,2758.06 " fill="transparent" id="common3-to-common4" style="stroke:#181818;stroke-width:1;"/><polygon fill="#181818" points="449.46,2764.06,453.46,2755.06,449.46,2759.06,445.46,2755.06,449.46,2764.06" style="stroke:#181818;stroke-width:1;"/><text fill="#000000" font-family="sans-serif" font-size="13" lengthAdjust="spacing" textLength="187.7202" x="450.46" y="2730.377">RA on X syncs and is promoted</text></g><!--link something_happens to netfail1--><g id="link_something_happens_netfail1"><path d="M685.84,473.49 C747.51,473.49 859.54,473.49 931.32,473.49 " fill="transparent" id="something_happens-to-netfail1" style="stroke:#181818;stroke-width:1;"/><polygon fill="#181818" points="937.32,473.49,928.32,469.49,932.32,473.49,928.32,477.49,937.32,473.49" style="stroke:#181818;stroke-width:1;"/><text fill="#000000" font-family="sans-serif" font-size="13" lengthAdjust="spacing" textLength="88.9331" x="767.3571" y="448.387">[Network fails]</text><text fill="#000000" font-family="sans-serif" font-size="13" lengthAdjust="spacing" textLength="216.5672" x="703.54" y="466.093">X and Y are unable to communicate</text></g><!--link netfail1 to netfail2--><g id="link_netfail1_netfail2"><path d="M986.67,526 C981.54,550.51 976.6405,573.8875 971.5005,598.4175 " fill="transparent" id="netfail1-to-netfail2" style="stroke:#181818;stroke-width:1;"/><polygon fill="#181818" points="970.27,604.29,976.0307,596.3016,971.2954,599.3963,968.2008,594.661,970.27,604.29" style="stroke:#181818;stroke-width:1;"/><text fill="#000000" font-family="sans-serif" font-size="13" lengthAdjust="spacing" textLength="207.7402" x="980.46" y="570.607">Both nodes try fencing each other</text></g><!--link netfail2 to netfail3--><g id="link_netfail2_netfail3"><path d="M942.34,709.38 C929.34,748.47 913.4234,796.2966 900.4334,835.3566 " fill="transparent" id="netfail2-to-netfail3" style="stroke:#181818;stroke-width:1;"/><polygon fill="#181818" points="898.54,841.05,905.1758,833.7722,900.1179,836.3055,897.5845,831.2476,898.54,841.05" style="stroke:#181818;stroke-width:1;"/><text fill="#000000" font-family="sans-serif" font-size="13" lengthAdjust="spacing" textLength="127.8551" x="932.46" y="780.547">Node Y wins quorum</text></g><!--link netfail3 to node_fenced--><g id="link_netfail3_node_fenced"><path d="M821.29,944.54 C774.32,983.71 715.698,1032.5873 679.268,1062.9673 " fill="transparent" id="netfail3-to-node_fenced" style="stroke:#181818;stroke-width:1;"/><polygon fill="#181818" points="674.66,1066.81,684.1338,1064.1179,678.5,1063.6077,679.0102,1057.9739,674.66,1066.81" style="stroke:#181818;stroke-width:1;"/></g><!--link something_happens to node_fenced--><g id="link_something_happens_node_fenced"><path d="M645.46,477.81 C645.46,520.28 645.46,952.02 645.46,1060.79 " fill="transparent" id="something_happens-to-node_fenced" style="stroke:#181818;stroke-width:1;"/><polygon fill="#181818" points="645.46,1066.79,649.46,1057.79,645.46,1061.79,641.46,1057.79,645.46,1066.79" style="stroke:#181818;stroke-width:1;"/><text fill="#000000" font-family="sans-serif" font-size="13" lengthAdjust="spacing" textLength="208.0522" x="647.2075" y="754.047">[UNGraceful Node Shutdown of X]</text><text fill="#000000" font-family="sans-serif" font-size="13" lengthAdjust="spacing" textLength="94.6791" x="703.8941" y="771.753">X fails suddenly</text><text fill="#000000" font-family="sans-serif" font-size="13" lengthAdjust="spacing" textLength="209.5472" x="646.46" y="789.459">RA on X could not make etcd leave</text><text fill="#000000" font-family="sans-serif" font-size="13" lengthAdjust="spacing" textLength="96.7851" x="704.5311" y="807.1651">the member list</text></g><!--link node_fenced to ungns1--><g id="link_node_fenced_ungns1"><path d="M641.84,1117.22 C635.93,1156.54 624.9612,1229.5265 617.0912,1281.9265 " fill="transparent" id="node_fenced-to-ungns1" style="stroke:#181818;stroke-width:1;"/><polygon fill="#181818" points="616.2,1287.86,621.4924,1279.5539,616.9426,1282.9155,613.5811,1278.3657,616.2,1287.86" style="stroke:#181818;stroke-width:1;"/></g><!--link ungns1 to ungns2--><g id="link_ungns1_ungns2"><path d="M603.06,1392.89 C600.5,1417.41 598.0528,1440.6924 595.4928,1465.2224 " fill="transparent" id="ungns1-to-ungns2" style="stroke:#181818;stroke-width:1;"/><polygon fill="#181818" points="594.87,1471.19,599.7826,1462.6538,595.389,1466.217,591.8258,1461.8234,594.87,1471.19" style="stroke:#181818;stroke-width:1;"/><text fill="#000000" font-family="sans-serif" font-size="13" lengthAdjust="spacing" textLength="126.6331" x="600.46" y="1437.507">RA on Y restarts etcd</text></g><!--link ungns2 to ungns3--><g id="link_ungns2_ungns3"><path d="M586.87,1576.45 C585.38,1606.11 583.8193,1637.2475 582.3393,1666.8775 " fill="transparent" id="ungns2-to-ungns3" style="stroke:#181818;stroke-width:1;"/><polygon fill="#181818" points="582.04,1672.87,586.484,1664.0808,582.2894,1667.8762,578.494,1663.6817,582.04,1672.87" style="stroke:#181818;stroke-width:1;"/><text fill="#000000" font-family="sans-serif" font-size="13" lengthAdjust="spacing" textLength="190.5282" x="585.46" y="1620.947">RA on Y forces new etcd cluster</text><text fill="#000000" font-family="sans-serif" font-size="13" lengthAdjust="spacing" textLength="116.7271" x="624.0505" y="1638.653">(revision increases)</text></g><!--link ungns3 to ungns4--><g id="link_ungns3_ungns4"><path d="M577.91,1777.89 C577.01,1807.56 576.0822,1838.6928 575.1822,1868.3128 " fill="transparent" id="ungns3-to-ungns4" style="stroke:#181818;stroke-width:1;"/><polygon fill="#181818" points="575,1874.31,579.2715,1865.4356,575.1519,1869.3123,571.2752,1865.1927,575,1874.31" style="stroke:#181818;stroke-width:1;"/><text fill="#000000" font-family="sans-serif" font-size="13" lengthAdjust="spacing" textLength="217.0612" x="577.46" y="1822.387">RA on Y adds X as learning member</text><text fill="#000000" font-family="sans-serif" font-size="13" lengthAdjust="spacing" textLength="116.7271" x="629.3171" y="1840.093">(revision increases)</text></g><!--link gns4 to rejoin--><g id="link_gns4_rejoin"><path d="M428.82,1258.58 C429.11,1304.01 429.46,1371.95 429.46,1431.11 C429.46,1431.11 429.46,1431.11 429.46,1927.72 C429.46,1966.03 434.8673,2003.4703 440.4573,2033.6503 " fill="transparent" id="gns4-to-rejoin" style="stroke:#181818;stroke-width:1;"/><polygon fill="#181818" points="441.55,2039.55,443.844,2029.972,440.6394,2034.6336,435.9778,2031.429,441.55,2039.55" style="stroke:#181818;stroke-width:1;"/></g><!--link ungns4 to rejoin--><g id="link_ungns4_rejoin"><path d="M530.78,1979.28 C514.39,1999.08 499.8262,2016.6883 484.6762,2034.9883 " fill="transparent" id="ungns4-to-rejoin" style="stroke:#181818;stroke-width:1;"/><polygon fill="#181818" points="480.85,2039.61,489.6704,2035.2282,484.0385,2035.7586,483.5081,2030.1266,480.85,2039.61" style="stroke:#181818;stroke-width:1;"/></g><!--SRC=[hLTjJnj74Fv-lsB45q029zWWHQvZ2H19qoIa8bGrWe3MTsFVbRjTPtSFi9fyR_zcVqbdTlTUR6YWCbz2RdVcsPbdNhqEiKPXCUd3QOdmYv3GVGKlz_hTlVxkA_Zr8nmUdKBtPNSlMeUf5Z5EoXo4JA2KzQTK2O99IvkeMscsmAO8gPZDvZ0JDZNHUcIkCpaJMXIWLIcJM6c96dPUHj70s7cEmwY3MYiDVqO0nf91xdy01oA-dZgTGvNJlT92Jl4dkliUVOywghHg4kUbiVYuRfvDKtkGbusw4HDycjfRZIWhlS6BO7JazTx9YUhVmMjFn0ZKP99d4XrDP25zEqg2dHTor1ALjMHc3PpiquNT9bXjCpdzPgoQpJ0XbSiVwLJo9BVsg1mci95ri0DeOxgHT2XZ15rAIH2R5rBZpHLxu-xf8pEPaeGMS2ya8ONR4pIgrAIzFqLf8LRIQfNJizD5z0k9smKMOzI6L8_uwcFup3DZ-HfbCbEPjBN0KNt0B9SceWnyy-da_UV0kb45sfIUkk9SGsbWC9WeVJqSikJdq_tJeqfqRJ0Uqi79wU35UBW6mdWc-a1qVOEpjThdr-plrRnbRX_EHrjmzcN1n3vyUby5VohDpXE17aAfGRe4iYf6hmztgsBiBcCC7kI4ISnHS1t_a9wrOv-CcO49KYOaZdxEf2l_JL5hLp55pojIVt7CFi6Xu_sbvuzhXnnADw1SheJIUn8n_ysj0takTWEv4wqA8lEMgvDRZ8bH2fqfSq5_4F1hcTs8d4hpGcxmw_3Ftty5GpPT83J-GQ1Li2JQYSZodHKAeo4jW7MV4wot8bX0YrLHABcpN74hnS9ZihUNpmrwt-jd0DsbmkFvDnoks0QvsnuSlNrt36y-VFhzy6Tgin4DCGIQNJpwNAkboNcWR4g4ypWw2xDfotsDwOBkc_cqLGsZQeY0cSkOH3QCAB0PIR9aspOx4Ld4SnDTVBM5xUtX_V7GRuuW797ylI6odUF4ahxlFkSUy6srwhXkzZciEkpTY2XXqycS4HJY6eqtck9mGsFFLQNdq4qwY286TXRwpbJfygZtkWliiJHvJWFCmPBe6LmZikZsrrBfik2PHXBCv5IX6sqo4RdYqK-DjH0sYqMUppkUOuV0WpgJ9Ka7fbiSkjUPXDRpXs75efCTrxpxxOs6139-Dyjp89BoEVqhOqiX4laMu0rAah2fAgSf1rD0WhGx9jJxNKAsmiUKC3U-tOxSKcc0kVPcQTx5WbszbZy9Men9qgQ2KwsYQkJz85Ffi1M5nHTxLJHs-pMWI193wcFQ1Ic8LLrnwdWOEjoeyp2Jl4GRD9jHv1kgGsnr6QA7eKBQH-6c9RMG27wPMmn44Ajz7YtuNDkT2kFNMLz7HX7RrNvSq1_0E_QVqYKdavDvfuQB1Uzu53kslrrIuUMMiRqbOqFA4qk2U67zXgYWtckfxxRKgQwDtr0Dp6YOqOl9WrNf8ayGpOWwFqPxI_iUyBVvmckrxoqy-KefnZaNaNkpb5G2dDf1sHdJp2VNcJYhYKmzTtkAQpuYJe6ko8bAjgr8BBXkS0QtjEQ2ByPAqllRMdCUT6fHX5pwxVYHJZFote8famGvMcuRzm5KPUvYvjhG3xlGKZ6rpGIQawT7NDuK4JL3BQnBSGeFQbgl2oSpdZl86TdAZsc_su7WNm5qpKO44VypOR-LJ-tTZndmYzwIIU4GOAV3lM-vpglUntRbojZG0-bDog_CAjqae4cpcKkCUcoHOBTJLynC8_qovT0h8F_O2uhmRQktqGNT4oZMxxRSyPOsddIR9i9QTNbumMuZs6i4tRl6FUlugdyfFjna7g2gzyGc7Sh-VflchacD-abjsh_OU7A_R_wFXkdMKeOAgwX7R9ty2m00]--></g></svg>