<?xml version="1.0" encoding="UTF-8" standalone="no"?>
<!DOCTYPE svg PUBLIC "-//W3C//DTD SVG 1.1//EN"
 "http://www.w3.org/Graphics/SVG/1.1/DTD/svg11.dtd">
<!-- Generated by graphviz version 2.47.1 (0)
 -->
<!-- Title: flow Pages: 1 -->
<svg width="637pt" height="523pt"
 viewBox="0.00 0.00 636.83 522.96" xmlns="http://www.w3.org/2000/svg" xmlns:xlink="http://www.w3.org/1999/xlink">
<g id="graph0" class="graph" transform="scale(1 1) rotate(0) translate(4 518.96)">
<title>flow</title>
<polygon fill="white" stroke="transparent" points="-4,4 -4,-518.96 632.83,-518.96 632.83,4 -4,4"/>
<!-- unrelated -->
<g id="node1" class="node">
<title>unrelated</title>
<ellipse fill="none" stroke="black" cx="286.83" cy="-496.96" rx="137.58" ry="18"/>
<text text-anchor="middle" x="286.83" y="-493.26" font-family="Times,serif" font-size="14.00">Bug does not have UpgradeBlocker</text>
</g>
<!-- suspect -->
<g id="node2" class="node">
<title>suspect</title>
<ellipse fill="none" stroke="black" cx="196.83" cy="-401.09" rx="117.26" ry="26.74"/>
<text text-anchor="middle" x="196.83" y="-404.89" font-family="Times,serif" font-size="14.00">Bug has UpgradeBlocker</text>
<text text-anchor="middle" x="196.83" y="-389.89" font-family="Times,serif" font-size="14.00">but none of the other labels</text>
</g>
<!-- unrelated&#45;&gt;suspect -->
<g id="edge1" class="edge">
<title>unrelated&#45;&gt;suspect</title>
<path fill="none" stroke="black" d="M237.66,-480.07C228.37,-475.18 219.49,-468.91 212.83,-460.96 207.36,-454.44 203.75,-446.21 201.37,-437.99"/>
<polygon fill="black" stroke="black" points="204.74,-437.02 199.03,-428.09 197.92,-438.62 204.74,-437.02"/>
<text text-anchor="middle" x="285.33" y="-449.76" font-family="Times,serif" font-size="14.00">suspected upgrade blocker</text>
</g>
<!-- componentDevQueue -->
<g id="node3" class="node">
<title>componentDevQueue</title>
<ellipse fill="none" stroke="black" cx="171.83" cy="-281.35" rx="171.65" ry="26.74"/>
<text text-anchor="middle" x="171.83" y="-285.15" font-family="Times,serif" font-size="14.00">Bug has ImpactStatementRequested label</text>
<text text-anchor="middle" x="171.83" y="-270.15" font-family="Times,serif" font-size="14.00">and possibly also UpgradeBlocker</text>
</g>
<!-- suspect&#45;&gt;componentDevQueue -->
<g id="edge2" class="edge">
<title>suspect&#45;&gt;componentDevQueue</title>
<path fill="none" stroke="black" d="M191.28,-373.96C187.8,-357.57 183.27,-336.22 179.45,-318.26"/>
<polygon fill="black" stroke="black" points="182.86,-317.46 177.36,-308.41 176.01,-318.92 182.86,-317.46"/>
<text text-anchor="middle" x="234.83" y="-345.02" font-family="Times,serif" font-size="14.00">bot requests</text>
<text text-anchor="middle" x="234.83" y="-330.02" font-family="Times,serif" font-size="14.00">impact statement</text>
</g>
<!-- graphAdminQueue -->
<g id="node4" class="node">
<title>graphAdminQueue</title>
<ellipse fill="none" stroke="black" cx="235.83" cy="-161.61" rx="167.67" ry="26.74"/>
<text text-anchor="middle" x="235.83" y="-165.41" font-family="Times,serif" font-size="14.00">Bug has ImpactStatementProposed label</text>
<text text-anchor="middle" x="235.83" y="-150.41" font-family="Times,serif" font-size="14.00">and possibly also UpgradeBlocker</text>
</g>
<!-- componentDevQueue&#45;&gt;graphAdminQueue -->
<g id="edge3" class="edge">
<title>componentDevQueue&#45;&gt;graphAdminQueue</title>
<path fill="none" stroke="black" d="M98.37,-256.83C90.25,-251.38 83.05,-244.68 77.83,-236.48 70.66,-225.23 69.76,-217.09 77.83,-206.48 84.12,-198.2 99.68,-191.08 118.72,-185.12"/>
<polygon fill="black" stroke="black" points="119.72,-188.48 128.32,-182.29 117.74,-181.76 119.72,-188.48"/>
<text text-anchor="middle" x="145.83" y="-225.28" font-family="Times,serif" font-size="14.00">component dev proposes</text>
<text text-anchor="middle" x="145.83" y="-210.28" font-family="Times,serif" font-size="14.00">an impact statement</text>
</g>
<!-- graphAdminQueue&#45;&gt;unrelated -->
<g id="edge5" class="edge">
<title>graphAdminQueue&#45;&gt;unrelated</title>
<path fill="none" stroke="black" d="M326.79,-184.23C336.55,-189.98 345.29,-197.26 351.83,-206.48 630.35,-598.98 375.52,-432.51 357.83,-460.96 354.62,-466.12 350.4,-470.54 345.62,-474.32"/>
<polygon fill="black" stroke="black" points="343.42,-471.59 337.12,-480.11 347.35,-477.38 343.42,-471.59"/>
<text text-anchor="middle" x="538.33" y="-345.02" font-family="Times,serif" font-size="14.00">graph admin accepts</text>
<text text-anchor="middle" x="538.33" y="-330.02" font-family="Times,serif" font-size="14.00">&quot;not a blocker&quot; impact statement</text>
</g>
<!-- graphAdminQueue&#45;&gt;componentDevQueue -->
<g id="edge4" class="edge">
<title>graphAdminQueue&#45;&gt;componentDevQueue</title>
<path fill="none" stroke="black" d="M231.2,-188.79C227.85,-203.49 222.37,-221.79 213.83,-236.48 211.8,-239.97 209.44,-243.4 206.89,-246.7"/>
<polygon fill="black" stroke="black" points="203.99,-244.72 200.25,-254.63 209.35,-249.21 203.99,-244.72"/>
<text text-anchor="middle" x="287.33" y="-225.28" font-family="Times,serif" font-size="14.00">graph admin quibbles</text>
<text text-anchor="middle" x="287.33" y="-210.28" font-family="Times,serif" font-size="14.00">with impact statement</text>
</g>
<!-- blocked -->
<g id="node5" class="node">
<title>blocked</title>
<ellipse fill="none" stroke="black" cx="235.83" cy="-26.87" rx="198.89" ry="26.74"/>
<text text-anchor="middle" x="235.83" y="-30.67" font-family="Times,serif" font-size="14.00">Bug has UpdateRecommendationsBlocked label</text>
<text text-anchor="middle" x="235.83" y="-15.67" font-family="Times,serif" font-size="14.00">and possibly also UpgradeBlocker</text>
</g>
<!-- graphAdminQueue&#45;&gt;blocked -->
<g id="edge6" class="edge">
<title>graphAdminQueue&#45;&gt;blocked</title>
<path fill="none" stroke="black" d="M235.83,-134.7C235.83,-114.64 235.83,-86.6 235.83,-64.29"/>
<polygon fill="black" stroke="black" points="239.33,-64.17 235.83,-54.17 232.33,-64.17 239.33,-64.17"/>
<text text-anchor="middle" x="324.83" y="-105.54" font-family="Times,serif" font-size="14.00">graph admin accepts</text>
<text text-anchor="middle" x="324.83" y="-90.54" font-family="Times,serif" font-size="14.00">&quot;blocker&quot; impact statement</text>
<text text-anchor="middle" x="324.83" y="-75.54" font-family="Times,serif" font-size="14.00">and lands blockers in graph&#45;data</text>
</g>
</g>
</svg>
